<svg height="1762" width="804" xmlns="http://www.w3.org/2000/svg">
	<style> text {font-size :10px;} </style>	<text x="20" y="60">Stage 0</text>
	<line x1="2" y1="80" x2="82" y2="80" stroke="black"/>
	<line x1="2" y1="160" x2="82" y2="160" stroke="black"/>
	<line x1="2" y1="80" x2="2" y2="160" stroke="black"/>
	<line x1="62" y1="140" x2="62" y2="100" stroke="black" />
	<line x1="52" y1="110" x2="62" y2="100" stroke="black" />
	<line x1="72" y1="110" x2="62" y2="100" stroke="black" />
	<text x="12" y="100">IN</text>
	<line x1="82" y1="80" x2="162" y2="80" stroke="black"/>
	<line x1="162" y1="80" x2="162" y2="160" stroke="black"/>
	<line x1="162" y1="80" x2="242" y2="80" stroke="black"/>
	<line x1="242" y1="80" x2="242" y2="160" stroke="black"/>
	<line x1="162" y1="160" x2="242" y2="160" stroke="black"/>
	<line x1="162" y1="80" x2="162" y2="160" stroke="black"/>
	<line x1="222" y1="140" x2="222" y2="100" stroke="black" />
	<line x1="212" y1="110" x2="222" y2="100" stroke="black" />
	<line x1="232" y1="110" x2="222" y2="100" stroke="black" />
	<line x1="242" y1="80" x2="322" y2="80" stroke="black"/>
	<line x1="242" y1="160" x2="322" y2="160" stroke="black"/>
	<line x1="242" y1="80" x2="242" y2="160" stroke="black"/>
	<line x1="322" y1="80" x2="402" y2="80" stroke="black"/>
	<line x1="402" y1="80" x2="402" y2="160" stroke="black"/>
	<line x1="322" y1="160" x2="402" y2="160" stroke="black"/>
	<line x1="382" y1="140" x2="382" y2="100" stroke="black" />
	<line x1="372" y1="110" x2="382" y2="100" stroke="black" />
	<line x1="392" y1="110" x2="382" y2="100" stroke="black" />
	<line x1="402" y1="80" x2="482" y2="80" stroke="black"/>
	<line x1="402" y1="80" x2="402" y2="160" stroke="black"/>
	<line x1="482" y1="80" x2="562" y2="80" stroke="black"/>
	<line x1="562" y1="80" x2="562" y2="160" stroke="black"/>
	<line x1="542" y1="140" x2="542" y2="100" stroke="black" />
	<line x1="532" y1="110" x2="542" y2="100" stroke="black" />
	<line x1="552" y1="110" x2="542" y2="100" stroke="black" />
	<line x1="562" y1="80" x2="642" y2="80" stroke="black"/>
	<line x1="642" y1="80" x2="642" y2="160" stroke="black"/>
	<line x1="562" y1="80" x2="562" y2="160" stroke="black"/>
	<line x1="622" y1="140" x2="622" y2="100" stroke="black" />
	<line x1="612" y1="110" x2="622" y2="100" stroke="black" />
	<line x1="632" y1="110" x2="622" y2="100" stroke="black" />
	<line x1="642" y1="80" x2="722" y2="80" stroke="black"/>
	<line x1="642" y1="80" x2="642" y2="160" stroke="black"/>
	<line x1="702" y1="140" x2="702" y2="100" stroke="black" />
	<line x1="692" y1="110" x2="702" y2="100" stroke="black" />
	<line x1="712" y1="110" x2="702" y2="100" stroke="black" />
	<line x1="722" y1="80" x2="802" y2="80" stroke="black"/>
	<line x1="802" y1="80" x2="802" y2="160" stroke="black"/>
	<line x1="782" y1="140" x2="782" y2="100" stroke="black" />
	<line x1="772" y1="110" x2="782" y2="100" stroke="black" />
	<line x1="792" y1="110" x2="782" y2="100" stroke="black" />
	<line x1="2" y1="160" x2="82" y2="160" stroke="black"/>
	<line x1="2" y1="240" x2="82" y2="240" stroke="black"/>
	<line x1="2" y1="160" x2="2" y2="240" stroke="black"/>
	<line x1="142" y1="220" x2="142" y2="180" stroke="black" />
	<line x1="132" y1="190" x2="142" y2="180" stroke="black" />
	<line x1="152" y1="190" x2="142" y2="180" stroke="black" />
	<line x1="162" y1="160" x2="242" y2="160" stroke="black"/>
	<line x1="242" y1="160" x2="242" y2="240" stroke="black"/>
	<line x1="162" y1="240" x2="242" y2="240" stroke="black"/>
	<line x1="222" y1="220" x2="222" y2="180" stroke="black" />
	<line x1="212" y1="190" x2="222" y2="180" stroke="black" />
	<line x1="232" y1="190" x2="222" y2="180" stroke="black" />
	<line x1="242" y1="160" x2="322" y2="160" stroke="black"/>
	<line x1="242" y1="240" x2="322" y2="240" stroke="black"/>
	<line x1="242" y1="160" x2="242" y2="240" stroke="black"/>
	<line x1="302" y1="220" x2="302" y2="180" stroke="black" />
	<line x1="292" y1="190" x2="302" y2="180" stroke="black" />
	<line x1="312" y1="190" x2="302" y2="180" stroke="black" />
	<line x1="322" y1="160" x2="402" y2="160" stroke="black"/>
	<line x1="322" y1="240" x2="402" y2="240" stroke="black"/>
	<line x1="382" y1="220" x2="382" y2="180" stroke="black" />
	<line x1="372" y1="190" x2="382" y2="180" stroke="black" />
	<line x1="392" y1="190" x2="382" y2="180" stroke="black" />
	<line x1="482" y1="160" x2="482" y2="240" stroke="black"/>
	<line x1="562" y1="160" x2="562" y2="240" stroke="black"/>
	<line x1="482" y1="240" x2="562" y2="240" stroke="black"/>
	<line x1="482" y1="160" x2="482" y2="240" stroke="black"/>
	<line x1="562" y1="240" x2="642" y2="240" stroke="black"/>
	<line x1="562" y1="160" x2="562" y2="240" stroke="black"/>
	<line x1="722" y1="160" x2="722" y2="240" stroke="black"/>
	<line x1="642" y1="240" x2="722" y2="240" stroke="black"/>
	<line x1="702" y1="220" x2="702" y2="180" stroke="black" />
	<line x1="692" y1="190" x2="702" y2="180" stroke="black" />
	<line x1="712" y1="190" x2="702" y2="180" stroke="black" />
	<line x1="802" y1="160" x2="802" y2="240" stroke="black"/>
	<line x1="722" y1="160" x2="722" y2="240" stroke="black"/>
	<line x1="2" y1="240" x2="82" y2="240" stroke="black"/>
	<line x1="2" y1="320" x2="82" y2="320" stroke="black"/>
	<line x1="2" y1="240" x2="2" y2="320" stroke="black"/>
	<line x1="162" y1="240" x2="162" y2="320" stroke="black"/>
	<line x1="82" y1="320" x2="162" y2="320" stroke="black"/>
	<line x1="142" y1="300" x2="142" y2="260" stroke="black" />
	<line x1="132" y1="270" x2="142" y2="260" stroke="black" />
	<line x1="152" y1="270" x2="142" y2="260" stroke="black" />
	<line x1="162" y1="240" x2="242" y2="240" stroke="black"/>
	<line x1="242" y1="240" x2="242" y2="320" stroke="black"/>
	<line x1="162" y1="320" x2="242" y2="320" stroke="black"/>
	<line x1="162" y1="240" x2="162" y2="320" stroke="black"/>
	<line x1="222" y1="300" x2="222" y2="260" stroke="black" />
	<line x1="212" y1="270" x2="222" y2="260" stroke="black" />
	<line x1="232" y1="270" x2="222" y2="260" stroke="black" />
	<line x1="242" y1="240" x2="322" y2="240" stroke="black"/>
	<line x1="242" y1="320" x2="322" y2="320" stroke="black"/>
	<line x1="242" y1="240" x2="242" y2="320" stroke="black"/>
	<line x1="322" y1="240" x2="402" y2="240" stroke="black"/>
	<line x1="402" y1="240" x2="402" y2="320" stroke="black"/>
	<line x1="482" y1="240" x2="482" y2="320" stroke="black"/>
	<line x1="402" y1="320" x2="482" y2="320" stroke="black"/>
	<line x1="402" y1="240" x2="402" y2="320" stroke="black"/>
	<line x1="482" y1="240" x2="562" y2="240" stroke="black"/>
	<line x1="482" y1="320" x2="562" y2="320" stroke="black"/>
	<line x1="482" y1="240" x2="482" y2="320" stroke="black"/>
	<line x1="562" y1="240" x2="642" y2="240" stroke="black"/>
	<line x1="562" y1="320" x2="642" y2="320" stroke="black"/>
	<line x1="642" y1="240" x2="722" y2="240" stroke="black"/>
	<line x1="802" y1="240" x2="802" y2="320" stroke="black"/>
	<line x1="722" y1="320" x2="802" y2="320" stroke="black"/>
	<line x1="2" y1="320" x2="82" y2="320" stroke="black"/>
	<line x1="82" y1="320" x2="82" y2="400" stroke="black"/>
	<line x1="2" y1="400" x2="82" y2="400" stroke="black"/>
	<line x1="2" y1="320" x2="2" y2="400" stroke="black"/>
	<line x1="62" y1="380" x2="62" y2="340" stroke="black" />
	<line x1="52" y1="350" x2="62" y2="340" stroke="black" />
	<line x1="72" y1="350" x2="62" y2="340" stroke="black" />
	<line x1="82" y1="320" x2="162" y2="320" stroke="black"/>
	<line x1="82" y1="400" x2="162" y2="400" stroke="black"/>
	<line x1="82" y1="320" x2="82" y2="400" stroke="black"/>
	<line x1="162" y1="320" x2="242" y2="320" stroke="black"/>
	<line x1="242" y1="320" x2="322" y2="320" stroke="black"/>
	<line x1="322" y1="320" x2="322" y2="400" stroke="black"/>
	<line x1="302" y1="380" x2="302" y2="340" stroke="black" />
	<line x1="292" y1="350" x2="302" y2="340" stroke="black" />
	<line x1="312" y1="350" x2="302" y2="340" stroke="black" />
	<line x1="402" y1="320" x2="402" y2="400" stroke="black"/>
	<line x1="322" y1="400" x2="402" y2="400" stroke="black"/>
	<line x1="322" y1="320" x2="322" y2="400" stroke="black"/>
	<line x1="382" y1="380" x2="382" y2="340" stroke="black" />
	<line x1="372" y1="350" x2="382" y2="340" stroke="black" />
	<line x1="392" y1="350" x2="382" y2="340" stroke="black" />
	<line x1="402" y1="320" x2="482" y2="320" stroke="black"/>
	<line x1="482" y1="320" x2="482" y2="400" stroke="black"/>
	<line x1="402" y1="320" x2="402" y2="400" stroke="black"/>
	<line x1="462" y1="380" x2="462" y2="340" stroke="black" />
	<line x1="452" y1="350" x2="462" y2="340" stroke="black" />
	<line x1="472" y1="350" x2="462" y2="340" stroke="black" />
	<line x1="482" y1="320" x2="562" y2="320" stroke="black"/>
	<line x1="562" y1="320" x2="562" y2="400" stroke="black"/>
	<line x1="482" y1="320" x2="482" y2="400" stroke="black"/>
	<line x1="562" y1="320" x2="642" y2="320" stroke="black"/>
	<line x1="562" y1="400" x2="642" y2="400" stroke="black"/>
	<line x1="562" y1="320" x2="562" y2="400" stroke="black"/>
	<text x="572" y="340">OUT</text>
	<line x1="722" y1="320" x2="722" y2="400" stroke="black"/>
	<line x1="642" y1="400" x2="722" y2="400" stroke="black"/>
	<line x1="722" y1="320" x2="802" y2="320" stroke="black"/>
	<line x1="802" y1="320" x2="802" y2="400" stroke="black"/>
	<line x1="722" y1="320" x2="722" y2="400" stroke="black"/>
	<line x1="2" y1="400" x2="82" y2="400" stroke="black"/>
	<line x1="82" y1="400" x2="82" y2="480" stroke="black"/>
	<line x1="2" y1="400" x2="2" y2="480" stroke="black"/>
	<line x1="82" y1="400" x2="162" y2="400" stroke="black"/>
	<line x1="162" y1="400" x2="162" y2="480" stroke="black"/>
	<line x1="82" y1="400" x2="82" y2="480" stroke="black"/>
	<line x1="142" y1="460" x2="142" y2="420" stroke="black" />
	<line x1="132" y1="430" x2="142" y2="420" stroke="black" />
	<line x1="152" y1="430" x2="142" y2="420" stroke="black" />
	<line x1="242" y1="400" x2="242" y2="480" stroke="black"/>
	<line x1="162" y1="480" x2="242" y2="480" stroke="black"/>
	<line x1="162" y1="400" x2="162" y2="480" stroke="black"/>
	<line x1="242" y1="480" x2="322" y2="480" stroke="black"/>
	<line x1="242" y1="400" x2="242" y2="480" stroke="black"/>
	<line x1="322" y1="400" x2="402" y2="400" stroke="black"/>
	<line x1="322" y1="480" x2="402" y2="480" stroke="black"/>
	<line x1="482" y1="400" x2="482" y2="480" stroke="black"/>
	<line x1="482" y1="480" x2="562" y2="480" stroke="black"/>
	<line x1="482" y1="400" x2="482" y2="480" stroke="black"/>
	<line x1="562" y1="400" x2="642" y2="400" stroke="black"/>
	<line x1="562" y1="480" x2="642" y2="480" stroke="black"/>
	<line x1="642" y1="400" x2="722" y2="400" stroke="black"/>
	<line x1="642" y1="480" x2="722" y2="480" stroke="black"/>
	<line x1="702" y1="460" x2="702" y2="420" stroke="black" />
	<line x1="692" y1="430" x2="702" y2="420" stroke="black" />
	<line x1="712" y1="430" x2="702" y2="420" stroke="black" />
	<line x1="802" y1="400" x2="802" y2="480" stroke="black"/>
	<line x1="782" y1="460" x2="782" y2="420" stroke="black" />
	<line x1="772" y1="430" x2="782" y2="420" stroke="black" />
	<line x1="792" y1="430" x2="782" y2="420" stroke="black" />
	<line x1="2" y1="480" x2="2" y2="560" stroke="black"/>
	<line x1="82" y1="560" x2="162" y2="560" stroke="black"/>
	<line x1="142" y1="540" x2="142" y2="500" stroke="black" />
	<line x1="132" y1="510" x2="142" y2="500" stroke="black" />
	<line x1="152" y1="510" x2="142" y2="500" stroke="black" />
	<line x1="162" y1="480" x2="242" y2="480" stroke="black"/>
	<line x1="242" y1="480" x2="242" y2="560" stroke="black"/>
	<line x1="162" y1="560" x2="242" y2="560" stroke="black"/>
	<line x1="242" y1="480" x2="322" y2="480" stroke="black"/>
	<line x1="242" y1="560" x2="322" y2="560" stroke="black"/>
	<line x1="242" y1="480" x2="242" y2="560" stroke="black"/>
	<line x1="322" y1="480" x2="402" y2="480" stroke="black"/>
	<line x1="322" y1="560" x2="402" y2="560" stroke="black"/>
	<line x1="482" y1="480" x2="482" y2="560" stroke="black"/>
	<line x1="462" y1="540" x2="462" y2="500" stroke="black" />
	<line x1="452" y1="510" x2="462" y2="500" stroke="black" />
	<line x1="472" y1="510" x2="462" y2="500" stroke="black" />
	<line x1="482" y1="480" x2="562" y2="480" stroke="black"/>
	<line x1="482" y1="480" x2="482" y2="560" stroke="black"/>
	<line x1="562" y1="480" x2="642" y2="480" stroke="black"/>
	<line x1="642" y1="480" x2="642" y2="560" stroke="black"/>
	<line x1="562" y1="560" x2="642" y2="560" stroke="black"/>
	<line x1="642" y1="480" x2="722" y2="480" stroke="black"/>
	<line x1="722" y1="480" x2="722" y2="560" stroke="black"/>
	<line x1="642" y1="480" x2="642" y2="560" stroke="black"/>
	<line x1="802" y1="480" x2="802" y2="560" stroke="black"/>
	<line x1="722" y1="560" x2="802" y2="560" stroke="black"/>
	<line x1="722" y1="480" x2="722" y2="560" stroke="black"/>
	<line x1="2" y1="640" x2="82" y2="640" stroke="black"/>
	<line x1="2" y1="560" x2="2" y2="640" stroke="black"/>
	<line x1="62" y1="620" x2="62" y2="580" stroke="black" />
	<line x1="52" y1="590" x2="62" y2="580" stroke="black" />
	<line x1="72" y1="590" x2="62" y2="580" stroke="black" />
	<line x1="82" y1="560" x2="162" y2="560" stroke="black"/>
	<line x1="162" y1="560" x2="162" y2="640" stroke="black"/>
	<line x1="162" y1="560" x2="242" y2="560" stroke="black"/>
	<line x1="242" y1="560" x2="242" y2="640" stroke="black"/>
	<line x1="162" y1="560" x2="162" y2="640" stroke="black"/>
	<line x1="242" y1="560" x2="322" y2="560" stroke="black"/>
	<line x1="242" y1="640" x2="322" y2="640" stroke="black"/>
	<line x1="242" y1="560" x2="242" y2="640" stroke="black"/>
	<line x1="322" y1="560" x2="402" y2="560" stroke="black"/>
	<line x1="402" y1="560" x2="402" y2="640" stroke="black"/>
	<line x1="482" y1="560" x2="482" y2="640" stroke="black"/>
	<line x1="402" y1="560" x2="402" y2="640" stroke="black"/>
	<line x1="562" y1="560" x2="562" y2="640" stroke="black"/>
	<line x1="482" y1="560" x2="482" y2="640" stroke="black"/>
	<line x1="562" y1="560" x2="642" y2="560" stroke="black"/>
	<line x1="642" y1="560" x2="642" y2="640" stroke="black"/>
	<line x1="562" y1="560" x2="562" y2="640" stroke="black"/>
	<line x1="722" y1="560" x2="722" y2="640" stroke="black"/>
	<line x1="642" y1="560" x2="642" y2="640" stroke="black"/>
	<line x1="722" y1="560" x2="802" y2="560" stroke="black"/>
	<line x1="802" y1="560" x2="802" y2="640" stroke="black"/>
	<line x1="722" y1="640" x2="802" y2="640" stroke="black"/>
	<line x1="722" y1="560" x2="722" y2="640" stroke="black"/>
	<line x1="782" y1="620" x2="782" y2="580" stroke="black" />
	<line x1="772" y1="590" x2="782" y2="580" stroke="black" />
	<line x1="792" y1="590" x2="782" y2="580" stroke="black" />
	<line x1="2" y1="640" x2="82" y2="640" stroke="black"/>
	<line x1="2" y1="640" x2="2" y2="720" stroke="black"/>
	<line x1="62" y1="700" x2="62" y2="660" stroke="black" />
	<line x1="52" y1="670" x2="62" y2="660" stroke="black" />
	<line x1="72" y1="670" x2="62" y2="660" stroke="black" />
	<line x1="162" y1="640" x2="162" y2="720" stroke="black"/>
	<line x1="82" y1="720" x2="162" y2="720" stroke="black"/>
	<line x1="142" y1="700" x2="142" y2="660" stroke="black" />
	<line x1="132" y1="670" x2="142" y2="660" stroke="black" />
	<line x1="152" y1="670" x2="142" y2="660" stroke="black" />
	<line x1="242" y1="640" x2="242" y2="720" stroke="black"/>
	<line x1="162" y1="640" x2="162" y2="720" stroke="black"/>
	<line x1="242" y1="640" x2="322" y2="640" stroke="black"/>
	<line x1="322" y1="640" x2="322" y2="720" stroke="black"/>
	<line x1="242" y1="640" x2="242" y2="720" stroke="black"/>
	<line x1="322" y1="720" x2="402" y2="720" stroke="black"/>
	<line x1="322" y1="640" x2="322" y2="720" stroke="black"/>
	<line x1="482" y1="640" x2="482" y2="720" stroke="black"/>
	<line x1="402" y1="720" x2="482" y2="720" stroke="black"/>
	<line x1="462" y1="700" x2="462" y2="660" stroke="black" />
	<line x1="452" y1="670" x2="462" y2="660" stroke="black" />
	<line x1="472" y1="670" x2="462" y2="660" stroke="black" />
	<line x1="562" y1="640" x2="562" y2="720" stroke="black"/>
	<line x1="482" y1="640" x2="482" y2="720" stroke="black"/>
	<line x1="642" y1="640" x2="642" y2="720" stroke="black"/>
	<line x1="562" y1="640" x2="562" y2="720" stroke="black"/>
	<line x1="622" y1="700" x2="622" y2="660" stroke="black" />
	<line x1="612" y1="670" x2="622" y2="660" stroke="black" />
	<line x1="632" y1="670" x2="622" y2="660" stroke="black" />
	<line x1="722" y1="640" x2="722" y2="720" stroke="black"/>
	<line x1="642" y1="640" x2="642" y2="720" stroke="black"/>
	<line x1="722" y1="640" x2="802" y2="640" stroke="black"/>
	<line x1="802" y1="640" x2="802" y2="720" stroke="black"/>
	<line x1="722" y1="640" x2="722" y2="720" stroke="black"/>
	<line x1="782" y1="700" x2="782" y2="660" stroke="black" />
	<line x1="772" y1="670" x2="782" y2="660" stroke="black" />
	<line x1="792" y1="670" x2="782" y2="660" stroke="black" />
	<line x1="2" y1="720" x2="2" y2="800" stroke="black"/>
	<line x1="82" y1="720" x2="162" y2="720" stroke="black"/>
	<line x1="162" y1="720" x2="162" y2="800" stroke="black"/>
	<line x1="82" y1="800" x2="162" y2="800" stroke="black"/>
	<line x1="242" y1="720" x2="242" y2="800" stroke="black"/>
	<line x1="162" y1="720" x2="162" y2="800" stroke="black"/>
	<line x1="242" y1="720" x2="242" y2="800" stroke="black"/>
	<line x1="302" y1="780" x2="302" y2="740" stroke="black" />
	<line x1="292" y1="750" x2="302" y2="740" stroke="black" />
	<line x1="312" y1="750" x2="302" y2="740" stroke="black" />
	<line x1="322" y1="720" x2="402" y2="720" stroke="black"/>
	<line x1="402" y1="720" x2="482" y2="720" stroke="black"/>
	<line x1="482" y1="720" x2="482" y2="800" stroke="black"/>
	<line x1="402" y1="800" x2="482" y2="800" stroke="black"/>
	<line x1="462" y1="780" x2="462" y2="740" stroke="black" />
	<line x1="452" y1="750" x2="462" y2="740" stroke="black" />
	<line x1="472" y1="750" x2="462" y2="740" stroke="black" />
	<line x1="562" y1="720" x2="562" y2="800" stroke="black"/>
	<line x1="482" y1="720" x2="482" y2="800" stroke="black"/>
	<line x1="642" y1="720" x2="642" y2="800" stroke="black"/>
	<line x1="562" y1="800" x2="642" y2="800" stroke="black"/>
	<line x1="562" y1="720" x2="562" y2="800" stroke="black"/>
	<line x1="722" y1="720" x2="722" y2="800" stroke="black"/>
	<line x1="642" y1="800" x2="722" y2="800" stroke="black"/>
	<line x1="642" y1="720" x2="642" y2="800" stroke="black"/>
	<line x1="702" y1="780" x2="702" y2="740" stroke="black" />
	<line x1="692" y1="750" x2="702" y2="740" stroke="black" />
	<line x1="712" y1="750" x2="702" y2="740" stroke="black" />
	<line x1="802" y1="720" x2="802" y2="800" stroke="black"/>
	<line x1="722" y1="720" x2="722" y2="800" stroke="black"/>
	<line x1="2" y1="880" x2="82" y2="880" stroke="black"/>
	<line x1="2" y1="800" x2="2" y2="880" stroke="black"/>
	<line x1="82" y1="800" x2="162" y2="800" stroke="black"/>
	<line x1="82" y1="880" x2="162" y2="880" stroke="black"/>
	<line x1="142" y1="860" x2="142" y2="820" stroke="black" />
	<line x1="132" y1="830" x2="142" y2="820" stroke="black" />
	<line x1="152" y1="830" x2="142" y2="820" stroke="black" />
	<line x1="162" y1="880" x2="242" y2="880" stroke="black"/>
	<line x1="222" y1="860" x2="222" y2="820" stroke="black" />
	<line x1="212" y1="830" x2="222" y2="820" stroke="black" />
	<line x1="232" y1="830" x2="222" y2="820" stroke="black" />
	<line x1="322" y1="800" x2="322" y2="880" stroke="black"/>
	<line x1="242" y1="880" x2="322" y2="880" stroke="black"/>
	<line x1="302" y1="860" x2="302" y2="820" stroke="black" />
	<line x1="292" y1="830" x2="302" y2="820" stroke="black" />
	<line x1="312" y1="830" x2="302" y2="820" stroke="black" />
	<line x1="402" y1="800" x2="402" y2="880" stroke="black"/>
	<line x1="322" y1="880" x2="402" y2="880" stroke="black"/>
	<line x1="322" y1="800" x2="322" y2="880" stroke="black"/>
	<line x1="402" y1="800" x2="482" y2="800" stroke="black"/>
	<line x1="402" y1="880" x2="482" y2="880" stroke="black"/>
	<line x1="402" y1="800" x2="402" y2="880" stroke="black"/>
	<line x1="482" y1="880" x2="562" y2="880" stroke="black"/>
	<line x1="562" y1="800" x2="642" y2="800" stroke="black"/>
	<line x1="642" y1="800" x2="642" y2="880" stroke="black"/>
	<line x1="562" y1="880" x2="642" y2="880" stroke="black"/>
	<line x1="622" y1="860" x2="622" y2="820" stroke="black" />
	<line x1="612" y1="830" x2="622" y2="820" stroke="black" />
	<line x1="632" y1="830" x2="622" y2="820" stroke="black" />
	<line x1="642" y1="800" x2="722" y2="800" stroke="black"/>
	<line x1="642" y1="880" x2="722" y2="880" stroke="black"/>
	<line x1="642" y1="800" x2="642" y2="880" stroke="black"/>
	<line x1="702" y1="860" x2="702" y2="820" stroke="black" />
	<line x1="692" y1="830" x2="702" y2="820" stroke="black" />
	<line x1="712" y1="830" x2="702" y2="820" stroke="black" />
	<line x1="802" y1="800" x2="802" y2="880" stroke="black"/>
	<line x1="722" y1="880" x2="802" y2="880" stroke="black"/>
	<line x1="0" y1="900" x2="800" y2="900" stroke="red"/>
	<text x="20" y="940">Stage 1</text>
	<line x1="2" y1="960" x2="82" y2="960" stroke="black"/>
	<line x1="2" y1="960" x2="2" y2="1040" stroke="black"/>
	<line x1="62" y1="1020" x2="62" y2="980" stroke="black" />
	<line x1="52" y1="1010" x2="62" y2="1020" stroke="black" />
	<line x1="72" y1="1010" x2="62" y2="1020" stroke="black" />
	<line x1="82" y1="960" x2="162" y2="960" stroke="black"/>
	<line x1="82" y1="1040" x2="162" y2="1040" stroke="black"/>
	<line x1="162" y1="960" x2="242" y2="960" stroke="black"/>
	<line x1="162" y1="1040" x2="242" y2="1040" stroke="black"/>
	<line x1="222" y1="1020" x2="222" y2="980" stroke="black" />
	<line x1="212" y1="1010" x2="222" y2="1020" stroke="black" />
	<line x1="232" y1="1010" x2="222" y2="1020" stroke="black" />
	<line x1="242" y1="960" x2="322" y2="960" stroke="black"/>
	<line x1="242" y1="1040" x2="322" y2="1040" stroke="black"/>
	<line x1="322" y1="960" x2="402" y2="960" stroke="black"/>
	<line x1="402" y1="960" x2="402" y2="1040" stroke="black"/>
	<line x1="382" y1="1020" x2="382" y2="980" stroke="black" />
	<line x1="372" y1="1010" x2="382" y2="1020" stroke="black" />
	<line x1="392" y1="1010" x2="382" y2="1020" stroke="black" />
	<line x1="402" y1="960" x2="482" y2="960" stroke="black"/>
	<line x1="402" y1="1040" x2="482" y2="1040" stroke="black"/>
	<line x1="402" y1="960" x2="402" y2="1040" stroke="black"/>
	<line x1="482" y1="960" x2="562" y2="960" stroke="black"/>
	<line x1="562" y1="960" x2="562" y2="1040" stroke="black"/>
	<line x1="482" y1="1040" x2="562" y2="1040" stroke="black"/>
	<line x1="542" y1="1020" x2="542" y2="980" stroke="black" />
	<line x1="532" y1="1010" x2="542" y2="1020" stroke="black" />
	<line x1="552" y1="1010" x2="542" y2="1020" stroke="black" />
	<line x1="562" y1="960" x2="642" y2="960" stroke="black"/>
	<line x1="642" y1="960" x2="642" y2="1040" stroke="black"/>
	<line x1="562" y1="1040" x2="642" y2="1040" stroke="black"/>
	<line x1="562" y1="960" x2="562" y2="1040" stroke="black"/>
	<line x1="622" y1="1020" x2="622" y2="980" stroke="black" />
	<line x1="612" y1="1010" x2="622" y2="1020" stroke="black" />
	<line x1="632" y1="1010" x2="622" y2="1020" stroke="black" />
	<line x1="642" y1="960" x2="722" y2="960" stroke="black"/>
	<line x1="722" y1="960" x2="722" y2="1040" stroke="black"/>
	<line x1="642" y1="1040" x2="722" y2="1040" stroke="black"/>
	<line x1="642" y1="960" x2="642" y2="1040" stroke="black"/>
	<line x1="702" y1="1020" x2="702" y2="980" stroke="black" />
	<line x1="692" y1="1010" x2="702" y2="1020" stroke="black" />
	<line x1="712" y1="1010" x2="702" y2="1020" stroke="black" />
	<line x1="722" y1="960" x2="802" y2="960" stroke="black"/>
	<line x1="802" y1="960" x2="802" y2="1040" stroke="black"/>
	<line x1="722" y1="1040" x2="802" y2="1040" stroke="black"/>
	<line x1="722" y1="960" x2="722" y2="1040" stroke="black"/>
	<line x1="782" y1="1020" x2="782" y2="980" stroke="black" />
	<line x1="772" y1="1010" x2="782" y2="1020" stroke="black" />
	<line x1="792" y1="1010" x2="782" y2="1020" stroke="black" />
	<line x1="82" y1="1040" x2="82" y2="1120" stroke="black"/>
	<line x1="2" y1="1120" x2="82" y2="1120" stroke="black"/>
	<line x1="2" y1="1040" x2="2" y2="1120" stroke="black"/>
	<line x1="82" y1="1040" x2="162" y2="1040" stroke="black"/>
	<line x1="162" y1="1040" x2="162" y2="1120" stroke="black"/>
	<line x1="82" y1="1120" x2="162" y2="1120" stroke="black"/>
	<line x1="82" y1="1040" x2="82" y2="1120" stroke="black"/>
	<line x1="142" y1="1100" x2="142" y2="1060" stroke="black" />
	<line x1="132" y1="1090" x2="142" y2="1100" stroke="black" />
	<line x1="152" y1="1090" x2="142" y2="1100" stroke="black" />
	<line x1="162" y1="1040" x2="242" y2="1040" stroke="black"/>
	<line x1="242" y1="1040" x2="242" y2="1120" stroke="black"/>
	<line x1="162" y1="1040" x2="162" y2="1120" stroke="black"/>
	<line x1="222" y1="1100" x2="222" y2="1060" stroke="black" />
	<line x1="212" y1="1090" x2="222" y2="1100" stroke="black" />
	<line x1="232" y1="1090" x2="222" y2="1100" stroke="black" />
	<line x1="242" y1="1040" x2="322" y2="1040" stroke="black"/>
	<line x1="322" y1="1040" x2="322" y2="1120" stroke="black"/>
	<line x1="242" y1="1040" x2="242" y2="1120" stroke="black"/>
	<line x1="302" y1="1100" x2="302" y2="1060" stroke="black" />
	<line x1="292" y1="1090" x2="302" y2="1100" stroke="black" />
	<line x1="312" y1="1090" x2="302" y2="1100" stroke="black" />
	<line x1="322" y1="1040" x2="322" y2="1120" stroke="black"/>
	<line x1="382" y1="1100" x2="382" y2="1060" stroke="black" />
	<line x1="372" y1="1090" x2="382" y2="1100" stroke="black" />
	<line x1="392" y1="1090" x2="382" y2="1100" stroke="black" />
	<line x1="402" y1="1040" x2="482" y2="1040" stroke="black"/>
	<line x1="482" y1="1040" x2="562" y2="1040" stroke="black"/>
	<line x1="562" y1="1040" x2="562" y2="1120" stroke="black"/>
	<line x1="482" y1="1120" x2="562" y2="1120" stroke="black"/>
	<line x1="562" y1="1040" x2="642" y2="1040" stroke="black"/>
	<line x1="562" y1="1120" x2="642" y2="1120" stroke="black"/>
	<line x1="562" y1="1040" x2="562" y2="1120" stroke="black"/>
	<line x1="642" y1="1040" x2="722" y2="1040" stroke="black"/>
	<line x1="722" y1="1040" x2="722" y2="1120" stroke="black"/>
	<line x1="702" y1="1100" x2="702" y2="1060" stroke="black" />
	<line x1="692" y1="1090" x2="702" y2="1100" stroke="black" />
	<line x1="712" y1="1090" x2="702" y2="1100" stroke="black" />
	<line x1="722" y1="1040" x2="802" y2="1040" stroke="black"/>
	<line x1="802" y1="1040" x2="802" y2="1120" stroke="black"/>
	<line x1="722" y1="1040" x2="722" y2="1120" stroke="black"/>
	<line x1="2" y1="1120" x2="82" y2="1120" stroke="black"/>
	<line x1="2" y1="1120" x2="2" y2="1200" stroke="black"/>
	<line x1="82" y1="1120" x2="162" y2="1120" stroke="black"/>
	<line x1="162" y1="1120" x2="162" y2="1200" stroke="black"/>
	<line x1="82" y1="1200" x2="162" y2="1200" stroke="black"/>
	<line x1="142" y1="1180" x2="142" y2="1140" stroke="black" />
	<line x1="132" y1="1170" x2="142" y2="1180" stroke="black" />
	<line x1="152" y1="1170" x2="142" y2="1180" stroke="black" />
	<line x1="242" y1="1120" x2="242" y2="1200" stroke="black"/>
	<line x1="162" y1="1120" x2="162" y2="1200" stroke="black"/>
	<line x1="222" y1="1180" x2="222" y2="1140" stroke="black" />
	<line x1="212" y1="1170" x2="222" y2="1180" stroke="black" />
	<line x1="232" y1="1170" x2="222" y2="1180" stroke="black" />
	<line x1="322" y1="1120" x2="322" y2="1200" stroke="black"/>
	<line x1="242" y1="1200" x2="322" y2="1200" stroke="black"/>
	<line x1="242" y1="1120" x2="242" y2="1200" stroke="black"/>
	<line x1="402" y1="1120" x2="402" y2="1200" stroke="black"/>
	<line x1="322" y1="1200" x2="402" y2="1200" stroke="black"/>
	<line x1="322" y1="1120" x2="322" y2="1200" stroke="black"/>
	<line x1="482" y1="1120" x2="482" y2="1200" stroke="black"/>
	<line x1="402" y1="1200" x2="482" y2="1200" stroke="black"/>
	<line x1="402" y1="1120" x2="402" y2="1200" stroke="black"/>
	<line x1="482" y1="1120" x2="562" y2="1120" stroke="black"/>
	<line x1="482" y1="1200" x2="562" y2="1200" stroke="black"/>
	<line x1="482" y1="1120" x2="482" y2="1200" stroke="black"/>
	<line x1="562" y1="1120" x2="642" y2="1120" stroke="black"/>
	<line x1="562" y1="1200" x2="642" y2="1200" stroke="black"/>
	<line x1="802" y1="1120" x2="802" y2="1200" stroke="black"/>
	<line x1="722" y1="1200" x2="802" y2="1200" stroke="black"/>
	<line x1="82" y1="1200" x2="82" y2="1280" stroke="black"/>
	<line x1="2" y1="1280" x2="82" y2="1280" stroke="black"/>
	<line x1="2" y1="1200" x2="2" y2="1280" stroke="black"/>
	<line x1="62" y1="1260" x2="62" y2="1220" stroke="black" />
	<line x1="52" y1="1250" x2="62" y2="1260" stroke="black" />
	<line x1="72" y1="1250" x2="62" y2="1260" stroke="black" />
	<line x1="82" y1="1200" x2="162" y2="1200" stroke="black"/>
	<line x1="162" y1="1200" x2="162" y2="1280" stroke="black"/>
	<line x1="82" y1="1200" x2="82" y2="1280" stroke="black"/>
	<line x1="242" y1="1200" x2="242" y2="1280" stroke="black"/>
	<line x1="162" y1="1200" x2="162" y2="1280" stroke="black"/>
	<line x1="242" y1="1200" x2="322" y2="1200" stroke="black"/>
	<line x1="242" y1="1200" x2="242" y2="1280" stroke="black"/>
	<line x1="302" y1="1260" x2="302" y2="1220" stroke="black" />
	<line x1="292" y1="1250" x2="302" y2="1260" stroke="black" />
	<line x1="312" y1="1250" x2="302" y2="1260" stroke="black" />
	<line x1="322" y1="1200" x2="402" y2="1200" stroke="black"/>
	<line x1="402" y1="1200" x2="402" y2="1280" stroke="black"/>
	<line x1="322" y1="1280" x2="402" y2="1280" stroke="black"/>
	<line x1="382" y1="1260" x2="382" y2="1220" stroke="black" />
	<line x1="372" y1="1250" x2="382" y2="1260" stroke="black" />
	<line x1="392" y1="1250" x2="382" y2="1260" stroke="black" />
	<line x1="402" y1="1200" x2="482" y2="1200" stroke="black"/>
	<line x1="402" y1="1280" x2="482" y2="1280" stroke="black"/>
	<line x1="402" y1="1200" x2="402" y2="1280" stroke="black"/>
	<line x1="462" y1="1260" x2="462" y2="1220" stroke="black" />
	<line x1="452" y1="1250" x2="462" y2="1260" stroke="black" />
	<line x1="472" y1="1250" x2="462" y2="1260" stroke="black" />
	<line x1="482" y1="1200" x2="562" y2="1200" stroke="black"/>
	<line x1="562" y1="1200" x2="562" y2="1280" stroke="black"/>
	<line x1="482" y1="1280" x2="562" y2="1280" stroke="black"/>
	<line x1="562" y1="1200" x2="642" y2="1200" stroke="black"/>
	<line x1="562" y1="1280" x2="642" y2="1280" stroke="black"/>
	<line x1="562" y1="1200" x2="562" y2="1280" stroke="black"/>
	<line x1="722" y1="1200" x2="722" y2="1280" stroke="black"/>
	<line x1="722" y1="1200" x2="802" y2="1200" stroke="black"/>
	<line x1="802" y1="1200" x2="802" y2="1280" stroke="black"/>
	<line x1="722" y1="1200" x2="722" y2="1280" stroke="black"/>
	<line x1="2" y1="1280" x2="82" y2="1280" stroke="black"/>
	<line x1="82" y1="1280" x2="82" y2="1360" stroke="black"/>
	<line x1="2" y1="1280" x2="2" y2="1360" stroke="black"/>
	<line x1="82" y1="1360" x2="162" y2="1360" stroke="black"/>
	<line x1="82" y1="1280" x2="82" y2="1360" stroke="black"/>
	<line x1="142" y1="1340" x2="142" y2="1300" stroke="black" />
	<line x1="132" y1="1330" x2="142" y2="1340" stroke="black" />
	<line x1="152" y1="1330" x2="142" y2="1340" stroke="black" />
	<line x1="242" y1="1280" x2="242" y2="1360" stroke="black"/>
	<line x1="162" y1="1360" x2="242" y2="1360" stroke="black"/>
	<line x1="322" y1="1280" x2="322" y2="1360" stroke="black"/>
	<line x1="242" y1="1280" x2="242" y2="1360" stroke="black"/>
	<line x1="322" y1="1280" x2="402" y2="1280" stroke="black"/>
	<line x1="322" y1="1360" x2="402" y2="1360" stroke="black"/>
	<line x1="322" y1="1280" x2="322" y2="1360" stroke="black"/>
	<line x1="402" y1="1280" x2="482" y2="1280" stroke="black"/>
	<line x1="482" y1="1280" x2="482" y2="1360" stroke="black"/>
	<line x1="482" y1="1280" x2="562" y2="1280" stroke="black"/>
	<line x1="562" y1="1280" x2="562" y2="1360" stroke="black"/>
	<line x1="482" y1="1280" x2="482" y2="1360" stroke="black"/>
	<line x1="562" y1="1280" x2="642" y2="1280" stroke="black"/>
	<line x1="562" y1="1280" x2="562" y2="1360" stroke="black"/>
	<line x1="722" y1="1280" x2="722" y2="1360" stroke="black"/>
	<line x1="642" y1="1360" x2="722" y2="1360" stroke="black"/>
	<line x1="702" y1="1340" x2="702" y2="1300" stroke="black" />
	<line x1="692" y1="1330" x2="702" y2="1340" stroke="black" />
	<line x1="712" y1="1330" x2="702" y2="1340" stroke="black" />
	<line x1="802" y1="1280" x2="802" y2="1360" stroke="black"/>
	<line x1="722" y1="1360" x2="802" y2="1360" stroke="black"/>
	<line x1="722" y1="1280" x2="722" y2="1360" stroke="black"/>
	<line x1="782" y1="1340" x2="782" y2="1300" stroke="black" />
	<line x1="772" y1="1330" x2="782" y2="1340" stroke="black" />
	<line x1="792" y1="1330" x2="782" y2="1340" stroke="black" />
	<line x1="2" y1="1440" x2="82" y2="1440" stroke="black"/>
	<line x1="2" y1="1360" x2="2" y2="1440" stroke="black"/>
	<line x1="82" y1="1360" x2="162" y2="1360" stroke="black"/>
	<line x1="82" y1="1440" x2="162" y2="1440" stroke="black"/>
	<line x1="142" y1="1420" x2="142" y2="1380" stroke="black" />
	<line x1="132" y1="1410" x2="142" y2="1420" stroke="black" />
	<line x1="152" y1="1410" x2="142" y2="1420" stroke="black" />
	<line x1="162" y1="1360" x2="242" y2="1360" stroke="black"/>
	<line x1="242" y1="1360" x2="242" y2="1440" stroke="black"/>
	<line x1="162" y1="1440" x2="242" y2="1440" stroke="black"/>
	<line x1="242" y1="1440" x2="322" y2="1440" stroke="black"/>
	<line x1="242" y1="1360" x2="242" y2="1440" stroke="black"/>
	<line x1="322" y1="1360" x2="402" y2="1360" stroke="black"/>
	<line x1="402" y1="1360" x2="402" y2="1440" stroke="black"/>
	<line x1="322" y1="1440" x2="402" y2="1440" stroke="black"/>
	<line x1="402" y1="1360" x2="402" y2="1440" stroke="black"/>
	<line x1="462" y1="1420" x2="462" y2="1380" stroke="black" />
	<line x1="452" y1="1410" x2="462" y2="1420" stroke="black" />
	<line x1="472" y1="1410" x2="462" y2="1420" stroke="black" />
	<line x1="562" y1="1360" x2="562" y2="1440" stroke="black"/>
	<line x1="562" y1="1360" x2="562" y2="1440" stroke="black"/>
	<line x1="642" y1="1360" x2="722" y2="1360" stroke="black"/>
	<line x1="642" y1="1440" x2="722" y2="1440" stroke="black"/>
	<line x1="722" y1="1360" x2="802" y2="1360" stroke="black"/>
	<line x1="802" y1="1360" x2="802" y2="1440" stroke="black"/>
	<line x1="2" y1="1440" x2="82" y2="1440" stroke="black"/>
	<line x1="82" y1="1440" x2="82" y2="1520" stroke="black"/>
	<line x1="2" y1="1520" x2="82" y2="1520" stroke="black"/>
	<line x1="2" y1="1440" x2="2" y2="1520" stroke="black"/>
	<line x1="62" y1="1500" x2="62" y2="1460" stroke="black" />
	<line x1="52" y1="1490" x2="62" y2="1500" stroke="black" />
	<line x1="72" y1="1490" x2="62" y2="1500" stroke="black" />
	<line x1="82" y1="1440" x2="162" y2="1440" stroke="black"/>
	<line x1="82" y1="1520" x2="162" y2="1520" stroke="black"/>
	<line x1="82" y1="1440" x2="82" y2="1520" stroke="black"/>
	<line x1="162" y1="1440" x2="242" y2="1440" stroke="black"/>
	<line x1="242" y1="1440" x2="322" y2="1440" stroke="black"/>
	<line x1="242" y1="1520" x2="322" y2="1520" stroke="black"/>
	<line x1="322" y1="1440" x2="402" y2="1440" stroke="black"/>
	<line x1="402" y1="1440" x2="402" y2="1520" stroke="black"/>
	<line x1="482" y1="1440" x2="482" y2="1520" stroke="black"/>
	<line x1="402" y1="1520" x2="482" y2="1520" stroke="black"/>
	<line x1="402" y1="1440" x2="402" y2="1520" stroke="black"/>
	<line x1="562" y1="1440" x2="562" y2="1520" stroke="black"/>
	<line x1="482" y1="1520" x2="562" y2="1520" stroke="black"/>
	<line x1="482" y1="1440" x2="482" y2="1520" stroke="black"/>
	<line x1="642" y1="1440" x2="642" y2="1520" stroke="black"/>
	<line x1="562" y1="1440" x2="562" y2="1520" stroke="black"/>
	<line x1="642" y1="1440" x2="722" y2="1440" stroke="black"/>
	<line x1="642" y1="1520" x2="722" y2="1520" stroke="black"/>
	<line x1="642" y1="1440" x2="642" y2="1520" stroke="black"/>
	<line x1="802" y1="1440" x2="802" y2="1520" stroke="black"/>
	<line x1="722" y1="1520" x2="802" y2="1520" stroke="black"/>
	<line x1="782" y1="1500" x2="782" y2="1460" stroke="black" />
	<line x1="772" y1="1490" x2="782" y2="1500" stroke="black" />
	<line x1="792" y1="1490" x2="782" y2="1500" stroke="black" />
	<line x1="2" y1="1520" x2="82" y2="1520" stroke="black"/>
	<line x1="82" y1="1520" x2="82" y2="1600" stroke="black"/>
	<line x1="2" y1="1600" x2="82" y2="1600" stroke="black"/>
	<line x1="2" y1="1520" x2="2" y2="1600" stroke="black"/>
	<line x1="62" y1="1580" x2="62" y2="1540" stroke="black" />
	<line x1="52" y1="1570" x2="62" y2="1580" stroke="black" />
	<line x1="72" y1="1570" x2="62" y2="1580" stroke="black" />
	<line x1="82" y1="1520" x2="162" y2="1520" stroke="black"/>
	<line x1="82" y1="1520" x2="82" y2="1600" stroke="black"/>
	<line x1="142" y1="1580" x2="142" y2="1540" stroke="black" />
	<line x1="132" y1="1570" x2="142" y2="1580" stroke="black" />
	<line x1="152" y1="1570" x2="142" y2="1580" stroke="black" />
	<line x1="242" y1="1520" x2="242" y2="1600" stroke="black"/>
	<line x1="162" y1="1600" x2="242" y2="1600" stroke="black"/>
	<line x1="242" y1="1520" x2="322" y2="1520" stroke="black"/>
	<line x1="242" y1="1600" x2="322" y2="1600" stroke="black"/>
	<line x1="242" y1="1520" x2="242" y2="1600" stroke="black"/>
	<line x1="402" y1="1520" x2="402" y2="1600" stroke="black"/>
	<line x1="322" y1="1600" x2="402" y2="1600" stroke="black"/>
	<line x1="402" y1="1520" x2="482" y2="1520" stroke="black"/>
	<line x1="402" y1="1600" x2="482" y2="1600" stroke="black"/>
	<line x1="402" y1="1520" x2="402" y2="1600" stroke="black"/>
	<line x1="462" y1="1580" x2="462" y2="1540" stroke="black" />
	<line x1="452" y1="1570" x2="462" y2="1580" stroke="black" />
	<line x1="472" y1="1570" x2="462" y2="1580" stroke="black" />
	<line x1="482" y1="1520" x2="562" y2="1520" stroke="black"/>
	<line x1="642" y1="1520" x2="642" y2="1600" stroke="black"/>
	<line x1="562" y1="1600" x2="642" y2="1600" stroke="black"/>
	<line x1="622" y1="1580" x2="622" y2="1540" stroke="black" />
	<line x1="612" y1="1570" x2="622" y2="1580" stroke="black" />
	<line x1="632" y1="1570" x2="622" y2="1580" stroke="black" />
	<line x1="642" y1="1520" x2="722" y2="1520" stroke="black"/>
	<line x1="642" y1="1600" x2="722" y2="1600" stroke="black"/>
	<line x1="642" y1="1520" x2="642" y2="1600" stroke="black"/>
	<line x1="722" y1="1520" x2="802" y2="1520" stroke="black"/>
	<line x1="802" y1="1520" x2="802" y2="1600" stroke="black"/>
	<line x1="782" y1="1580" x2="782" y2="1540" stroke="black" />
	<line x1="772" y1="1570" x2="782" y2="1580" stroke="black" />
	<line x1="792" y1="1570" x2="782" y2="1580" stroke="black" />
	<line x1="2" y1="1600" x2="82" y2="1600" stroke="black"/>
	<line x1="82" y1="1600" x2="82" y2="1680" stroke="black"/>
	<line x1="2" y1="1600" x2="2" y2="1680" stroke="black"/>
	<line x1="162" y1="1600" x2="162" y2="1680" stroke="black"/>
	<line x1="82" y1="1680" x2="162" y2="1680" stroke="black"/>
	<line x1="82" y1="1600" x2="82" y2="1680" stroke="black"/>
	<line x1="162" y1="1600" x2="242" y2="1600" stroke="black"/>
	<line x1="242" y1="1600" x2="242" y2="1680" stroke="black"/>
	<line x1="162" y1="1600" x2="162" y2="1680" stroke="black"/>
	<line x1="242" y1="1600" x2="322" y2="1600" stroke="black"/>
	<line x1="322" y1="1600" x2="322" y2="1680" stroke="black"/>
	<line x1="242" y1="1680" x2="322" y2="1680" stroke="black"/>
	<line x1="242" y1="1600" x2="242" y2="1680" stroke="black"/>
	<line x1="302" y1="1660" x2="302" y2="1620" stroke="black" />
	<line x1="292" y1="1650" x2="302" y2="1660" stroke="black" />
	<line x1="312" y1="1650" x2="302" y2="1660" stroke="black" />
	<line x1="322" y1="1600" x2="402" y2="1600" stroke="black"/>
	<line x1="402" y1="1600" x2="402" y2="1680" stroke="black"/>
	<line x1="322" y1="1600" x2="322" y2="1680" stroke="black"/>
	<line x1="402" y1="1600" x2="482" y2="1600" stroke="black"/>
	<line x1="402" y1="1600" x2="402" y2="1680" stroke="black"/>
	<line x1="462" y1="1660" x2="462" y2="1620" stroke="black" />
	<line x1="452" y1="1650" x2="462" y2="1660" stroke="black" />
	<line x1="472" y1="1650" x2="462" y2="1660" stroke="black" />
	<line x1="482" y1="1680" x2="562" y2="1680" stroke="black"/>
	<line x1="562" y1="1600" x2="642" y2="1600" stroke="black"/>
	<line x1="642" y1="1600" x2="642" y2="1680" stroke="black"/>
	<line x1="642" y1="1600" x2="722" y2="1600" stroke="black"/>
	<line x1="722" y1="1600" x2="722" y2="1680" stroke="black"/>
	<line x1="642" y1="1600" x2="642" y2="1680" stroke="black"/>
	<line x1="702" y1="1660" x2="702" y2="1620" stroke="black" />
	<line x1="692" y1="1650" x2="702" y2="1660" stroke="black" />
	<line x1="712" y1="1650" x2="702" y2="1660" stroke="black" />
	<line x1="802" y1="1600" x2="802" y2="1680" stroke="black"/>
	<line x1="722" y1="1600" x2="722" y2="1680" stroke="black"/>
	<line x1="2" y1="1760" x2="82" y2="1760" stroke="black"/>
	<line x1="2" y1="1680" x2="2" y2="1760" stroke="black"/>
	<line x1="82" y1="1680" x2="162" y2="1680" stroke="black"/>
	<line x1="162" y1="1680" x2="162" y2="1760" stroke="black"/>
	<line x1="82" y1="1760" x2="162" y2="1760" stroke="black"/>
	<line x1="142" y1="1740" x2="142" y2="1700" stroke="black" />
	<line x1="132" y1="1730" x2="142" y2="1740" stroke="black" />
	<line x1="152" y1="1730" x2="142" y2="1740" stroke="black" />
	<line x1="242" y1="1680" x2="242" y2="1760" stroke="black"/>
	<line x1="162" y1="1760" x2="242" y2="1760" stroke="black"/>
	<line x1="162" y1="1680" x2="162" y2="1760" stroke="black"/>
	<line x1="222" y1="1740" x2="222" y2="1700" stroke="black" />
	<line x1="212" y1="1730" x2="222" y2="1740" stroke="black" />
	<line x1="232" y1="1730" x2="222" y2="1740" stroke="black" />
	<line x1="242" y1="1680" x2="322" y2="1680" stroke="black"/>
	<line x1="242" y1="1760" x2="322" y2="1760" stroke="black"/>
	<line x1="242" y1="1680" x2="242" y2="1760" stroke="black"/>
	<line x1="302" y1="1740" x2="302" y2="1700" stroke="black" />
	<line x1="292" y1="1730" x2="302" y2="1740" stroke="black" />
	<line x1="312" y1="1730" x2="302" y2="1740" stroke="black" />
	<line x1="402" y1="1680" x2="402" y2="1760" stroke="black"/>
	<line x1="322" y1="1760" x2="402" y2="1760" stroke="black"/>
	<line x1="402" y1="1760" x2="482" y2="1760" stroke="black"/>
	<line x1="402" y1="1680" x2="402" y2="1760" stroke="black"/>
	<line x1="482" y1="1680" x2="562" y2="1680" stroke="black"/>
	<line x1="562" y1="1680" x2="562" y2="1760" stroke="black"/>
	<line x1="482" y1="1760" x2="562" y2="1760" stroke="black"/>
	<line x1="562" y1="1760" x2="642" y2="1760" stroke="black"/>
	<line x1="562" y1="1680" x2="562" y2="1760" stroke="black"/>
	<line x1="622" y1="1740" x2="622" y2="1700" stroke="black" />
	<line x1="612" y1="1730" x2="622" y2="1740" stroke="black" />
	<line x1="632" y1="1730" x2="622" y2="1740" stroke="black" />
	<line x1="722" y1="1680" x2="722" y2="1760" stroke="black"/>
	<line x1="642" y1="1760" x2="722" y2="1760" stroke="black"/>
	<line x1="702" y1="1740" x2="702" y2="1700" stroke="black" />
	<line x1="692" y1="1730" x2="702" y2="1740" stroke="black" />
	<line x1="712" y1="1730" x2="702" y2="1740" stroke="black" />
	<line x1="802" y1="1680" x2="802" y2="1760" stroke="black"/>
	<line x1="722" y1="1760" x2="802" y2="1760" stroke="black"/>
	<line x1="722" y1="1680" x2="722" y2="1760" stroke="black"/>
</svg>
